<?xml version="1.0" encoding="UTF-8"?><svg xmlns="http://www.w3.org/2000/svg" xmlns:xlink="http://www.w3.org/1999/xlink" viewBox="0 0 269.82 313.77"><defs><style>.g{font-family:HighTowerText-Reg, High Tower Text;font-size:15.83px;}.g,.h{fill:#1d1d1b;}.i{fill:url(#e);}.i,.j,.k,.l,.m{stroke:#1d1d1b;stroke-miterlimit:10;}.n{letter-spacing:0em;}.j{fill:none;}.h{font-family:MyriadPro-Regular, Myriad Pro;font-size:23.74px;}.k{fill:#fff;}.l{fill:url(#d);}.m{fill:url(#f);}</style><linearGradient id="d" x1=".6" y1="156.88" x2="264.99" y2="156.88" gradientTransform="matrix(1, 0, 0, 1, 0, 0)" gradientUnits="userSpaceOnUse"><stop offset=".16" stop-color="#fcea10"/><stop offset=".21" stop-color="#f0e117"/><stop offset=".3" stop-color="#d1c92c"/><stop offset=".42" stop-color="#a0a24d"/><stop offset=".56" stop-color="#5c6d7b"/><stop offset=".65" stop-color="#2f4a9a"/></linearGradient><linearGradient id="e" x1="165.78" y1="178.32" x2="67.53" y2="58.55" xlink:href="#d"/><linearGradient id="f" x1="164.27" y1="176.49" x2="71.14" y2="62.96" xlink:href="#d"/></defs><g id="a"/><g id="b"><g id="c"><g><circle class="l" cx="132.8" cy="156.88" r="132.19"/><circle class="k" cx="132.8" cy="156.88" r="120.98"/><line class="j" x1="69.84" y1="231.51" x2="207" y2="231.51"/><g><path class="i" d="M185.66,225.9c-1.95,0-3.88-.08-5.74-.15-1.48-.06-2.97-.12-4.45-.13-2.62-.03-5.06-1.46-6.37-3.72l-28.34-49.09-18.83,40.38v4.14c0,4.11-3.34,7.45-7.45,7.45h-21.42c-4.11,0-7.45-3.34-7.45-7.45V53.73c0-4.11,3.34-7.45,7.45-7.45h18.48l45.01-.99,.73,.19c.66,.17,1.38,.29,2.28,.36l.66,.06,.55,.19,.66,.13,.54,.26,1.04,.25,1.26,.98,1,.42,.77,.92c1.49,1.25,3.32,2.13,5.44,3.14,1.1,.53,2.23,1.07,3.41,1.71,.83,.45,1.73,.92,2.75,1.42l.52,.26,.45,.36s.06,.05,.1,.07l.67,.41,.38,.42,.48,.26,.48,.48c3.64,2.52,3.33,6.61,3.22,8.15-.02,.24-.04,.56-.04,.68,.07,2.47,.27,5.2,.61,8.13l.15,1.13-.16,.85,.08,.68-.09,.72c-.02,.15-.04,.3-.05,.43l-.08,.97-24.85,53.29,46.68,80.86c1.25,2.17,1.33,4.8,.22,7.05-1.11,2.24-3.26,3.76-5.74,4.07-2.99,.37-6.17,.72-9.7,1.06-1.62,.16-3.36,.23-5.3,.23Zm-63.74-98.63l21.15-45.35-21.15,.46v44.89Z"/><path class="m" d="M201.46,216.22l-47.58-82.42c-.33-.56-.36-1.25-.08-1.84l25.2-54.04c.02-.21,.04-.44,.07-.68-.07-.57-.05-1.14,.05-1.7,0-.03-.01-.05-.02-.08-.34-2.93-.59-5.93-.67-8.87-.05-1.63,.61-3.53-.87-4.53-.23-.16-.44-.33-.63-.52-.43-.23-.8-.53-1.11-.88-.21-.13-.42-.28-.62-.44-.98-.48-1.95-.98-2.94-1.52-3.37-1.84-6.8-3-9.78-5.5-.21-.18-.4-.37-.56-.56-.19-.08-.38-.18-.57-.28-.26-.2-.51-.4-.77-.59-.33-.08-.63-.19-.91-.33-.21-.04-.4-.09-.59-.16-1.07-.09-2.13-.25-3.17-.52l-44.31,.97h-18.54c-1.1,0-2,.89-2,2V217.33c0,1.1,.89,2,2,2h21.42c1.1,0,2-.89,2-2v-4.9c0-.29,.06-.58,.19-.84l21.96-47.08c.68-1.47,2.73-1.55,3.54-.15l31.66,54.83c.35,.61,1.01,.99,1.72,1,4.97,.06,9.94,.55,14.91,.07,3.17-.31,6.37-.65,9.55-1.04,1.41-.18,2.18-1.75,1.47-2.98Zm-51.09-137.03l-24.59,52.72c-.07,.16-.17,.29-.28,.42-.17,.61-.46,1.18-.85,1.67l.09,.15-4.45,9.54c-.9,1.94-3.81,1.29-3.81-.84v-11.3c-.06-.48-.06-.96,0-1.44v-51.1c0-1.09,.87-1.97,1.95-2l30.08-.66c1.48-.03,2.48,1.5,1.85,2.84Z"/></g><text class="h" transform="translate(97.08 251.77)"><tspan class="n" x="0" y="0">R</tspan><tspan x="12.87" y="0">ethink</tspan></text><text class="g" transform="translate(104.14 309.57)"><tspan x="0" y="0">Logotyp</tspan></text><text class="g" transform="translate(105.3 13.02)"><tspan x="0" y="0">Symbol</tspan></text></g></g></g></svg>